<svg xmlns="http://www.w3.org/2000/svg" viewBox="0 0 193.09 68.33"><defs><style>.cls-1{fill:#231f20;}</style></defs><title>logo--black</title><g id="Layer_2" data-name="Layer 2"><g id="brand"><g id="logo--black"><path class="cls-1" d="M8.61,53q0,.76-.55.76H3.49V53A1.75,1.75,0,0,0,3,51.77a1.65,1.65,0,0,0-1.24-.51,1.74,1.74,0,0,0-1.27.49,1.77,1.77,0,0,0,1.27,3,2.81,2.81,0,0,0,.67,0q-.13.46-.76.45H1.59v.87H1.7q1.58,0,1.77-1.28H8.29a1.29,1.29,0,0,0,1.06-.47,1.56,1.56,0,0,0,.34-1v-2H8.61Zm-6.2.76H1.77q-.67,0-.67-.78t.63-.73q.67,0,.67.76Z"/><rect class="cls-1" x="7.19" y="55.18" width="0.96" height="0.9"/><rect class="cls-1" x="8.65" y="55.18" width="0.97" height="0.9"/><rect class="cls-1" x="16.69" y="55.18" width="0.97" height="0.9"/><rect class="cls-1" x="15.23" y="55.18" width="0.96" height="0.9"/><path class="cls-1" d="M16.64,53q0,.76-.55.76H14.48a2.26,2.26,0,0,0-1.61-2.33,4.92,4.92,0,0,0-1.45-.15v.91q2,0,2,1.57H10.57v1h5.75a1.29,1.29,0,0,0,1.06-.47,1.56,1.56,0,0,0,.34-1v-2H16.64Z"/><path class="cls-1" d="M20.36,51.26a1.69,1.69,0,0,0-1.26.49A1.75,1.75,0,0,0,18.61,53a1.78,1.78,0,0,0,.5,1.29,1.68,1.68,0,0,0,1.25.51.83.83,0,0,0,.77-.36.63.63,0,0,1-.27.52.93.93,0,0,1-.6.2H20.2v.87h.11q1.78,0,1.78-1.44V53.05a1.79,1.79,0,0,0-.49-1.28A1.64,1.64,0,0,0,20.36,51.26Zm0,2.57q-.68,0-.68-.8t.64-.79q.66,0,.66.81T20.38,53.83Z"/><path class="cls-1" d="M28.54,51.38h-.6l1-1.48H27.63l-1.55,2.48h2a1.47,1.47,0,0,1,1.06.43,1.72,1.72,0,0,1,.52,1.06H25.38a2.22,2.22,0,0,1-1.08-.2,1,1,0,0,1-.44-.95H22.78q0,2.18,2.58,2.18h5.43v-.4Q30.79,51.61,28.54,51.38Z"/><rect class="cls-1" x="31.39" y="49.89" width="1.09" height="5.02"/><rect class="cls-1" x="37.01" y="49.9" width="0.96" height="0.9"/><rect class="cls-1" x="38.48" y="49.9" width="0.96" height="0.9"/><rect class="cls-1" x="45.65" y="48.61" width="0.96" height="0.9"/><rect class="cls-1" x="46.39" y="49.9" width="0.96" height="0.9"/><path class="cls-1" d="M47.82,53.16q0,.7-.55.7h-.69a2.26,2.26,0,0,0,.13-.79v-1.7H45.62v1.78q0,.7-.55.7h-.69a2.26,2.26,0,0,0,.13-.79v-1.7h-1.1v1.73q0,.75-.55.75H39.39a2.34,2.34,0,0,0,.13-.79v-1.7h-1.1v1.73q0,.75-.55.75H34.72V51.38H33.63v2.9q0,1-1.07,1v.88q1.85,0,2.11-1.28H47.31a1.47,1.47,0,0,0,1.14-.52,1.92,1.92,0,0,0,.46-1.32V51.38H47.82Z"/><rect class="cls-1" x="44.93" y="49.9" width="0.97" height="0.9"/><rect class="cls-1" x="49.93" y="49.89" width="1.09" height="5.02"/><path class="cls-1" d="M40.82,35.6c0,5.43-6,4.61-6,4.61H11c-3.72,0-4.57-2.93-4.57-5.6V30.66l-6.24,5V37c0,6.77,3.38,9.22,10.93,9.22H37.42c5.08,0,9.61-3.47,9.61-8.44v-13l-6.22,5.95Z"/><polygon class="cls-1" points="49.86 46.24 56.19 46.24 56.19 17.13 49.86 23.07 49.86 46.24"/><path class="cls-1" d="M63.28,42.63c0,4-2.18,6.2-6.34,6.2L61,54.94c2.31,0,8.62-1.65,8.62-12.84V24.3l-6.35,6.36Z"/><path class="cls-1" d="M79.89,46.25H90.27a7.57,7.57,0,0,0,6.24-2.76,9,9,0,0,0,1.94-6V25.79l-6.33,5.86v4.12q0,4.43-3.2,4.43H78.52s.07-3,.07-4.7V16.66l-6.33,5.95V38.79Q72.26,46.25,79.89,46.25Z"/><polygon class="cls-1" points="101.05 46.24 107.38 46.24 107.38 16.8 101.05 22.4 101.05 46.24"/><path class="cls-1" d="M104,8.31c-9.37,0-11.85,6.31-11.85,8.62l6.3,4c0-4.16,1.05-6.24,5-6.24h6.21L116,8.31Z"/><polygon class="cls-1" points="21.65 24.31 6.41 24.31 6.41 30.64 27.6 30.64 21.65 24.31"/><path class="cls-1" d="M91.61,56.79l5.31-5c-.06-.08-.1-.16-.16-.23a7.57,7.57,0,0,0-6.24-2.76l-17.4,0,6.43,6h8.87A3.9,3.9,0,0,1,91.61,56.79Z"/><path class="cls-1" d="M84.16,55.81h4a3.36,3.36,0,0,1,2.69,1.65l-2.45,2.45Z"/><path class="cls-1" d="M154.25,2,148,.36A10.58,10.58,0,0,0,135,7.87l-1.58,5.93A32.4,32.4,0,0,1,154.25,2Z"/><path class="cls-1" d="M126.66,39.33l-1.54,5.8a10.58,10.58,0,0,0,7.51,12.94l6,1.6A32.41,32.41,0,0,1,126.66,39.33Z"/><path class="cls-1" d="M185.22,10.25l-6.74-1.79a32.4,32.4,0,0,1,12.4,21.7l1.85-7A10.58,10.58,0,0,0,185.22,10.25Z"/><path class="cls-1" d="M163.45,66.26,169.89,68a10.58,10.58,0,0,0,12.94-7.51l1.82-6.84A32.42,32.42,0,0,1,163.45,66.26Z"/><path class="cls-1" d="M158.92,4.54a29.63,29.63,0,1,0,29.63,29.63A29.63,29.63,0,0,0,158.92,4.54ZM142.15,19.32a8.46,8.46,0,1,1,6.71,9.91A8.46,8.46,0,0,1,142.15,19.32Zm12.31,25.6A8.46,8.46,0,1,1,147.75,35,8.46,8.46,0,0,1,154.46,44.92Zm3.59-6.85a3.76,3.76,0,1,1,4.41-3A3.76,3.76,0,0,1,158.05,38.07ZM175.7,49A8.46,8.46,0,1,1,169,39.1,8.46,8.46,0,0,1,175.7,49Zm-5.6-15.68A8.46,8.46,0,1,1,180,26.61,8.46,8.46,0,0,1,170.1,33.33Z"/></g></g></g></svg>